# xmcd
#
# Track frame offsets:
#	150
#	12245
#	22837
#	37196
#	51869
#	67986
#	81688
#	95404
#	108756
#	121671
#	135353
#	148117
#	159725
#	172090
#	185573
#	198174
#	210996
#	225072
#	237828
#	250499
#
# Disc length: 3499 seconds
#
# Revision: 0
# Processed by: cddbd v1.5.1PL2 Copyright (c) Steve Scherf et al.
# Submitted via: dBpowerAMP V4.0
#
DISCID=070da914
DTITLE=Bill Carlisle - Duvall County Blues
DYEAR=2002
DGENRE=Country
TTITLE0=Beneath The Weeping Willow Tree
TTITLE1=A Shack By The Side Of The Road
TTITLE2=I Know What It Is To Be Lonesome
TTITLE3=I'll Always Be Your Little Darling
TTITLE4=Drifting Together
TTITLE5=Why Did The Blue Skies Turn To Grey
TTITLE6=Lost On Life's Sea
TTITLE7=Duvall County Blues
TTITLE8=Rattlesnake Daddy
TTITLE9=The Girl I Left So Blue
TTITLE10=Little Wild Rose
TTITLE11=Cowgirl Jean
TTITLE12=Penitentiary Blues
TTITLE13=If Jesus Should Come
TTITLE14=I'm Heading For Home Sweet Home
TTITLE15=I Dreamed I Searched Heaven For You
TTITLE16=Roll On Old Troubles, Roll On
TTITLE17=I Done It Wrong
TTITLE18=Sugar Cane Mama
TTITLE19=Are You Going To Leave Me Lil
EXTD=
EXTT0=
EXTT1=
EXTT2=
EXTT3=
EXTT4=
EXTT5=
EXTT6=
EXTT7=
EXTT8=
EXTT9=
EXTT10=
EXTT11=
EXTT12=
EXTT13=
EXTT14=
EXTT15=
EXTT16=
EXTT17=
EXTT18=
EXTT19=
PLAYORDER=
